<?xml version="1.0" encoding="utf-8"?>
<!-- Generator: Adobe Illustrator 23.0.1, SVG Export Plug-In . SVG Version: 6.00 Build 0)  -->
<svg version="1.1" id="Layer_1" xmlns="http://www.w3.org/2000/svg" xmlns:xlink="http://www.w3.org/1999/xlink" x="0px" y="0px"
	 viewBox="0 0 26.5 26.5" style="enable-background:new 0 0 26.5 26.5;" xml:space="preserve">
<style type="text/css">
	.st0{fill:#82C341;}
</style>
<g>
	<g>
		<path class="st0" d="M9.3,9.4c1.6,0,2.9-1.3,2.9-2.9c0-0.2,0-0.4-0.1-0.6c0-0.2-0.2-0.3-0.4-0.3c-0.2,0-0.3,0.2-0.3,0.4
			c0,0.1,0,0.3,0,0.4c0,1.2-1,2.2-2.2,2.2c-1.2,0-2.2-1-2.2-2.2c0-1.2,1-2.2,2.2-2.2c0.4,0,0.8,0.1,1.2,0.4c0.2,0.1,0.4,0.1,0.5-0.1
			c0.1-0.2,0.1-0.4-0.1-0.5c-0.5-0.3-1-0.5-1.6-0.5c-1.6,0-2.9,1.3-2.9,2.9C6.4,8.1,7.7,9.4,9.3,9.4z"/>
		<path class="st0" d="M11.7,4.2L9.3,6.9L8.5,5.7C8.3,5.6,8.1,5.5,7.9,5.6C7.8,5.8,7.7,6,7.9,6.2L9,7.7c0.1,0.1,0.2,0.1,0.3,0.2
			c0,0,0,0,0,0c0.1,0,0.2,0,0.3-0.1l2.7-3.1c0.1-0.2,0.1-0.4,0-0.5C12,4,11.8,4,11.7,4.2z"/>
		<path class="st0" d="M9.3,16.4c1.6,0,2.9-1.3,2.9-2.9c0-0.2,0-0.4-0.1-0.6c0-0.2-0.2-0.3-0.4-0.3c-0.2,0-0.3,0.2-0.3,0.4
			c0,0.1,0,0.3,0,0.4c0,1.2-1,2.2-2.2,2.2c-1.2,0-2.2-1-2.2-2.2c0-1.2,1-2.2,2.2-2.2c0.4,0,0.8,0.1,1.2,0.4c0.2,0.1,0.4,0.1,0.5-0.1
			c0.1-0.2,0.1-0.4-0.1-0.5c-0.5-0.3-1-0.5-1.6-0.5c-1.6,0-2.9,1.3-2.9,2.9C6.4,15.1,7.7,16.4,9.3,16.4z"/>
		<path class="st0" d="M11.7,11.2l-2.4,2.8l-0.9-1.2c-0.1-0.2-0.3-0.2-0.5-0.1c-0.2,0.1-0.2,0.3-0.1,0.5L9,14.7
			c0.1,0.1,0.2,0.1,0.3,0.2c0,0,0,0,0,0c0.1,0,0.2,0,0.3-0.1l2.7-3.1c0.1-0.2,0.1-0.4,0-0.5C12,11,11.8,11,11.7,11.2z"/>
		<path class="st0" d="M11.7,19.6c-0.2,0-0.3,0.2-0.3,0.4c0,0.1,0,0.3,0,0.4c0,1.2-1,2.2-2.2,2.2c-1.2,0-2.2-1-2.2-2.2
			c0-1.2,1-2.2,2.2-2.2c0.4,0,0.8,0.1,1.2,0.4c0.2,0.1,0.4,0.1,0.5-0.1c0.1-0.2,0.1-0.4-0.1-0.5c-0.5-0.3-1-0.5-1.6-0.5
			c-1.6,0-2.9,1.3-2.9,2.9c0,1.6,1.3,2.9,2.9,2.9s2.9-1.3,2.9-2.9c0-0.2,0-0.4-0.1-0.6C12.1,19.7,11.9,19.6,11.7,19.6z"/>
		<path class="st0" d="M11.7,18.2l-2.4,2.8l-0.9-1.2c-0.1-0.2-0.3-0.2-0.5-0.1c-0.2,0.1-0.2,0.3-0.1,0.5L9,21.7
			c0.1,0.1,0.2,0.1,0.3,0.2c0,0,0,0,0,0c0.1,0,0.2,0,0.3-0.1l2.7-3.1c0.1-0.2,0.1-0.4,0-0.5C12,18,11.8,18,11.7,18.2z"/>
		<path class="st0" d="M13.5,14.9h3.6c0.2,0,0.4-0.2,0.4-0.4c0-0.2-0.2-0.4-0.4-0.4h-3.6c-0.2,0-0.4,0.2-0.4,0.4
			C13.2,14.8,13.3,14.9,13.5,14.9z"/>
		<path class="st0" d="M19.7,14.9c0.2,0,0.4-0.2,0.4-0.4c0-0.2-0.2-0.4-0.4-0.4h-1.6c-0.2,0-0.4,0.2-0.4,0.4c0,0.2,0.2,0.4,0.4,0.4
			H19.7z"/>
		<path class="st0" d="M19.7,21.3h-6.2c-0.2,0-0.4,0.2-0.4,0.4s0.2,0.4,0.4,0.4h6.2c0.2,0,0.4-0.2,0.4-0.4S19.9,21.3,19.7,21.3z"/>
		<path class="st0" d="M19.7,19.9h-3.6c-0.2,0-0.4,0.2-0.4,0.4s0.2,0.4,0.4,0.4h3.6c0.2,0,0.4-0.2,0.4-0.4S19.9,19.9,19.7,19.9z"/>
		<path class="st0" d="M13.5,20.6h1.6c0.2,0,0.4-0.2,0.4-0.4c0-0.2-0.2-0.4-0.4-0.4h-1.6c-0.2,0-0.4,0.2-0.4,0.4
			C13.2,20.4,13.3,20.6,13.5,20.6z"/>
		<path class="st0" d="M13.5,6.1h3.6c0.2,0,0.4-0.2,0.4-0.4c0-0.2-0.2-0.4-0.4-0.4h-3.6c-0.2,0-0.4,0.2-0.4,0.4
			C13.2,5.9,13.3,6.1,13.5,6.1z"/>
		<path class="st0" d="M18.1,6.1h1.6c0.2,0,0.4-0.2,0.4-0.4c0-0.2-0.2-0.4-0.4-0.4h-1.6c-0.2,0-0.4,0.2-0.4,0.4
			C17.7,5.9,17.9,6.1,18.1,6.1z"/>
		<path class="st0" d="M19.7,12.5h-6.2c-0.2,0-0.4,0.2-0.4,0.4c0,0.2,0.2,0.4,0.4,0.4h6.2c0.2,0,0.4-0.2,0.4-0.4
			C20.1,12.7,19.9,12.5,19.7,12.5z"/>
		<path class="st0" d="M19.7,7h-3.6c-0.2,0-0.4,0.2-0.4,0.4c0,0.2,0.2,0.4,0.4,0.4h3.6c0.2,0,0.4-0.2,0.4-0.4
			C20.1,7.1,19.9,7,19.7,7z"/>
		<path class="st0" d="M13.5,7.7h1.6c0.2,0,0.4-0.2,0.4-0.4c0-0.2-0.2-0.4-0.4-0.4h-1.6c-0.2,0-0.4,0.2-0.4,0.4
			C13.2,7.5,13.3,7.7,13.5,7.7z"/>
	</g>
	<g>
		<path class="st0" d="M21.6,0.7H4.9c-0.7,0-1.3,0.6-1.3,1.3v22.6c0,0.7,0.6,1.3,1.3,1.3h16.8c0.7,0,1.3-0.6,1.3-1.3V1.9
			C22.9,1.2,22.3,0.7,21.6,0.7z M22.2,24.6c0,0.3-0.2,0.5-0.5,0.5H4.9c-0.3,0-0.5-0.2-0.5-0.5V1.9c0-0.3,0.2-0.5,0.5-0.5h16.8
			c0.3,0,0.5,0.2,0.5,0.5V24.6z"/>
	</g>
</g>
</svg>
