<svg version="1.1" xmlns="http://www.w3.org/2000/svg" xmlns:xlink="http://www.w3.org/1999/xlink" xmlns:a="http://ns.adobe.com/AdobeSVGViewerExtensions/3.0/" x="0px" y="0px" width="180px" height="180px"
  xml:space="preserve">
<defs>
</defs>
  <circle cx="90" cy="90" fill="#BF0000" r="90"></circle>
  <path d="M148.3,47H31.7c-2.2,0-3.7,1.9-3.7,4.1v70c0,2.2,1.5,3.9,3.7,3.9H82v4H62.8c-2.2,0-3.9,1.8-3.9,4
  s1.7,4,3.9,4h54.4c2.2,0,3.9-1.8,3.9-4s-1.7-4-3.9-4H98v-4h50.3c2.2,0,3.7-1.7,3.7-3.9v-70C152,48.9,150.5,47,148.3,47z M141,113H39
 V59h102V113z" fill="#FFFFFF"></path>
</svg>
